<svg width="1024" height="1024" viewBox="0 0 1024 1024" xmlns="http://www.w3.org/2000/svg">
  <!-- Rounded square background -->
  <defs>
    <linearGradient id="bgGradient" x1="0" y1="0" x2="1" y2="1">
      <stop offset="0%" stop-color="#5F5CFF"/>
      <stop offset="100%" stop-color="#A775FF"/>
    </linearGradient>
    <clipPath id="roundedCorner">
      <rect x="0" y="0" width="1024" height="1024" rx="220" ry="220"/>
    </clipPath>
  </defs>

  <rect width="1024" height="1024" fill="url(#bgGradient)" clip-path="url(#roundedCorner)" />

  <!-- Whisper wave arcs behind microphone -->
  <path
    d="M512 340
       C 600 340, 600 440, 512 440
       C 424 440, 424 540, 512 540
       C 600 540, 600 640, 512 640"
    fill="none"
    stroke="#FFFFFF" stroke-width="20" stroke-linecap="round"
    opacity="0.2"
    transform="translate(0, -60)"
  />

  <!-- Main microphone -->
  <path
    d="M512 256a64 64 0 0 0-64 64v192a64 64 0 1 0 128 0V320a64 64 0 0 0-64-64zm-160 192v32c0 88.4 71.6 160 160 160s160-71.6 160-160v-32h64v32c0 124.8-96.5 227.8-220 239.1V800h96v64H416v-64h96v-80.9c-123.5-11.3-220-114.3-220-239.1v-32h64z"
    fill="#FFFFFF"
  />
</svg>
